<mxfile host="app.diagrams.net" modified="2023-07-30T08:34:02.292Z" agent="Mozilla/5.0 (Macintosh; Intel Mac OS X 10_15_7) AppleWebKit/537.36 (KHTML, like Gecko) Chrome/115.0.0.0 Safari/537.36" etag="m3VcvQpPJt0ZNdsagpZu" version="21.6.5" type="github">
  <diagram name="Page-1" id="HZ4J6h5WrDlkyBMv3TkF">
    <mxGraphModel dx="1242" dy="674" grid="1" gridSize="10" guides="1" tooltips="1" connect="1" arrows="1" fold="1" page="1" pageScale="1" pageWidth="827" pageHeight="1169" math="0" shadow="0">
      <root>
        <mxCell id="0" />
        <mxCell id="1" parent="0" />
        <mxCell id="kermTVDf9uslVRIBH5-V-1" value="&lt;font style=&quot;font-size: 18px;&quot;&gt;NVT MD&lt;/font&gt;" style="rounded=1;whiteSpace=wrap;html=1;" vertex="1" parent="1">
          <mxGeometry x="330" y="160" width="120" height="60" as="geometry" />
        </mxCell>
        <mxCell id="kermTVDf9uslVRIBH5-V-2" value="&lt;font style=&quot;font-size: 18px;&quot;&gt;Geometry Optimization&lt;/font&gt;" style="rounded=1;whiteSpace=wrap;html=1;" vertex="1" parent="1">
          <mxGeometry x="130" y="160" width="120" height="60" as="geometry" />
        </mxCell>
        <mxCell id="kermTVDf9uslVRIBH5-V-3" value="&lt;font style=&quot;font-size: 18px;&quot;&gt;NAMD&lt;/font&gt;" style="rounded=1;whiteSpace=wrap;html=1;" vertex="1" parent="1">
          <mxGeometry x="130" y="340" width="120" height="60" as="geometry" />
        </mxCell>
        <mxCell id="kermTVDf9uslVRIBH5-V-4" value="&lt;font style=&quot;font-size: 18px;&quot;&gt;NAC&lt;/font&gt;" style="rounded=1;whiteSpace=wrap;html=1;" vertex="1" parent="1">
          <mxGeometry x="330" y="340" width="120" height="60" as="geometry" />
        </mxCell>
        <mxCell id="kermTVDf9uslVRIBH5-V-5" value="&lt;font style=&quot;font-size: 18px;&quot;&gt;Batch SCF-DFT&lt;/font&gt;" style="rounded=1;whiteSpace=wrap;html=1;" vertex="1" parent="1">
          <mxGeometry x="528" y="340" width="120" height="60" as="geometry" />
        </mxCell>
        <mxCell id="kermTVDf9uslVRIBH5-V-6" value="&lt;font style=&quot;font-size: 18px;&quot;&gt;NVE MD&lt;/font&gt;" style="rounded=1;whiteSpace=wrap;html=1;" vertex="1" parent="1">
          <mxGeometry x="529" y="160" width="120" height="60" as="geometry" />
        </mxCell>
        <mxCell id="kermTVDf9uslVRIBH5-V-7" value="" style="endArrow=classic;html=1;rounded=0;exitX=1;exitY=0.5;exitDx=0;exitDy=0;entryX=0;entryY=0.5;entryDx=0;entryDy=0;strokeWidth=2;" edge="1" parent="1" source="kermTVDf9uslVRIBH5-V-2" target="kermTVDf9uslVRIBH5-V-1">
          <mxGeometry width="50" height="50" relative="1" as="geometry">
            <mxPoint x="390" y="360" as="sourcePoint" />
            <mxPoint x="440" y="310" as="targetPoint" />
          </mxGeometry>
        </mxCell>
        <mxCell id="kermTVDf9uslVRIBH5-V-9" value="" style="endArrow=classic;html=1;rounded=0;exitX=1;exitY=0.5;exitDx=0;exitDy=0;entryX=0;entryY=0.5;entryDx=0;entryDy=0;strokeWidth=2;" edge="1" parent="1">
          <mxGeometry width="50" height="50" relative="1" as="geometry">
            <mxPoint x="450" y="189.5" as="sourcePoint" />
            <mxPoint x="530" y="189.5" as="targetPoint" />
          </mxGeometry>
        </mxCell>
        <mxCell id="kermTVDf9uslVRIBH5-V-10" value="" style="endArrow=classic;html=1;rounded=0;strokeWidth=2;entryX=1;entryY=0.5;entryDx=0;entryDy=0;exitX=0;exitY=0.5;exitDx=0;exitDy=0;" edge="1" parent="1" source="kermTVDf9uslVRIBH5-V-4" target="kermTVDf9uslVRIBH5-V-3">
          <mxGeometry width="50" height="50" relative="1" as="geometry">
            <mxPoint x="330" y="375" as="sourcePoint" />
            <mxPoint x="270" y="365" as="targetPoint" />
          </mxGeometry>
        </mxCell>
        <mxCell id="kermTVDf9uslVRIBH5-V-11" value="" style="endArrow=classic;html=1;rounded=0;exitX=1;exitY=0.5;exitDx=0;exitDy=0;strokeWidth=2;" edge="1" parent="1">
          <mxGeometry width="50" height="50" relative="1" as="geometry">
            <mxPoint x="529" y="369.5" as="sourcePoint" />
            <mxPoint x="449" y="369.5" as="targetPoint" />
          </mxGeometry>
        </mxCell>
        <mxCell id="kermTVDf9uslVRIBH5-V-12" value="" style="endArrow=classic;html=1;rounded=0;exitX=0.5;exitY=1;exitDx=0;exitDy=0;entryX=0.5;entryY=0;entryDx=0;entryDy=0;strokeWidth=2;" edge="1" parent="1" source="kermTVDf9uslVRIBH5-V-6" target="kermTVDf9uslVRIBH5-V-5">
          <mxGeometry width="50" height="50" relative="1" as="geometry">
            <mxPoint x="290" y="230" as="sourcePoint" />
            <mxPoint x="370" y="230" as="targetPoint" />
          </mxGeometry>
        </mxCell>
        <mxCell id="kermTVDf9uslVRIBH5-V-13" value="" style="rounded=1;whiteSpace=wrap;html=1;fillColor=none;strokeColor=#FF0000;dashed=1;strokeWidth=3;" vertex="1" parent="1">
          <mxGeometry x="310" y="300" width="350" height="130" as="geometry" />
        </mxCell>
        <mxCell id="kermTVDf9uslVRIBH5-V-14" value="&lt;font style=&quot;font-size: 18px;&quot;&gt;A lot of WAVECAR&lt;/font&gt;" style="rounded=0;whiteSpace=wrap;html=1;strokeColor=default;dashed=1;dashPattern=1 1;strokeWidth=2;" vertex="1" parent="1">
          <mxGeometry x="530" y="460" width="120" height="60" as="geometry" />
        </mxCell>
        <mxCell id="kermTVDf9uslVRIBH5-V-16" value="" style="endArrow=classic;html=1;rounded=0;entryX=0.8;entryY=0.769;entryDx=0;entryDy=0;entryPerimeter=0;exitX=0.5;exitY=0;exitDx=0;exitDy=0;strokeWidth=3;dashed=1;dashPattern=1 1;" edge="1" parent="1" source="kermTVDf9uslVRIBH5-V-14" target="kermTVDf9uslVRIBH5-V-13">
          <mxGeometry width="50" height="50" relative="1" as="geometry">
            <mxPoint x="390" y="340" as="sourcePoint" />
            <mxPoint x="440" y="290" as="targetPoint" />
          </mxGeometry>
        </mxCell>
        <mxCell id="kermTVDf9uslVRIBH5-V-17" value="&lt;font style=&quot;font-size: 18px;&quot;&gt;write a python code to avoid store WAVECAR&lt;/font&gt;" style="rounded=0;whiteSpace=wrap;html=1;strokeColor=#FF0000;fontColor=#FF0000;dashed=1;dashPattern=1 1;strokeWidth=2;" vertex="1" parent="1">
          <mxGeometry x="330" y="460" width="186" height="60" as="geometry" />
        </mxCell>
        <mxCell id="kermTVDf9uslVRIBH5-V-18" value="" style="endArrow=classic;html=1;rounded=0;entryX=0.8;entryY=0.769;entryDx=0;entryDy=0;entryPerimeter=0;strokeWidth=3;dashed=1;dashPattern=1 1;fontColor=#FF0000;strokeColor=#FF0000;" edge="1" parent="1">
          <mxGeometry width="50" height="50" relative="1" as="geometry">
            <mxPoint x="430" y="460" as="sourcePoint" />
            <mxPoint x="430" y="430" as="targetPoint" />
          </mxGeometry>
        </mxCell>
      </root>
    </mxGraphModel>
  </diagram>
</mxfile>
